<svg xmlns="http://www.w3.org/2000/svg" width="221" height="81" viewBox="0 0 221 81"><defs><linearGradient id="yq5ta" x1="5.25" x2="14.68" y1="71.43" y2="71.43" gradientUnits="userSpaceOnUse"><stop offset="0" stop-color="#fff"/><stop offset="1" stop-color="#fff"/></linearGradient><linearGradient id="yq5tb" x1="13.81" x2="27.97" y1="80.07" y2="80.07" gradientUnits="userSpaceOnUse"><stop offset="0" stop-color="#fff"/><stop offset="1" stop-color="#fff"/></linearGradient><linearGradient id="yq5tc" x1="13.81" x2="27.97" y1="79.58" y2="79.58" gradientUnits="userSpaceOnUse"><stop offset="0" stop-color="#fff"/><stop offset="1" stop-color="#fff"/></linearGradient><linearGradient id="yq5td" x1="27.26" x2="46.78" y1="79.62" y2="79.62" gradientUnits="userSpaceOnUse"><stop offset="0" stop-color="#fff"/><stop offset="1" stop-color="#fff"/></linearGradient><linearGradient id="yq5te" x1="52.3" x2="66.82" y1="78.3" y2="78.3" gradientUnits="userSpaceOnUse"><stop offset="0" stop-color="#fff"/><stop offset="1" stop-color="#fff"/></linearGradient><linearGradient id="yq5tf" x1="52.3" x2="66.82" y1="79.99" y2="79.99" gradientUnits="userSpaceOnUse"><stop offset="0" stop-color="#fff"/><stop offset="1" stop-color="#fff"/></linearGradient><linearGradient id="yq5tg" x1="65.27" x2="79.44" y1="77.17" y2="77.17" gradientUnits="userSpaceOnUse"><stop offset="0" stop-color="#fff"/><stop offset="1" stop-color="#fff"/></linearGradient><linearGradient id="yq5th" x1="65.27" x2="79.44" y1="78.73" y2="78.73" gradientUnits="userSpaceOnUse"><stop offset="0" stop-color="#fff"/><stop offset="1" stop-color="#fff"/></linearGradient><linearGradient id="yq5ti" x1="52.3" x2="66.82" y1="79.56" y2="79.56" gradientUnits="userSpaceOnUse"><stop offset="0" stop-color="#fff"/><stop offset="1" stop-color="#fff"/></linearGradient><linearGradient id="yq5tj" x1="65.27" x2="79.44" y1="79.56" y2="79.56" gradientUnits="userSpaceOnUse"><stop offset="0" stop-color="#fff"/><stop offset="1" stop-color="#fff"/></linearGradient><linearGradient id="yq5tk" x1="65.27" x2="79.44" y1="79.07" y2="79.07" gradientUnits="userSpaceOnUse"><stop offset="0" stop-color="#fff"/><stop offset="1" stop-color="#fff"/></linearGradient><linearGradient id="yq5tl" x1="125.22" x2="139.75" y1="78.16" y2="78.16" gradientUnits="userSpaceOnUse"><stop offset="0" stop-color="#fff"/><stop offset="1" stop-color="#fff"/></linearGradient><linearGradient id="yq5tm" x1="125.22" x2="139.75" y1="78.8" y2="78.8" gradientUnits="userSpaceOnUse"><stop offset="0" stop-color="#fff"/><stop offset="1" stop-color="#fff"/></linearGradient><linearGradient id="yq5tn" x1="125.22" x2="139.75" y1="79.46" y2="79.46" gradientUnits="userSpaceOnUse"><stop offset="0" stop-color="#fff"/><stop offset="1" stop-color="#fff"/></linearGradient><linearGradient id="yq5to" x1="125.22" x2="139.75" y1="79.48" y2="79.48" gradientUnits="userSpaceOnUse"><stop offset="0" stop-color="#fff"/><stop offset="1" stop-color="#fff"/></linearGradient><linearGradient id="yq5tp" x1="137.06" x2="150" y1="78.65" y2="78.65" gradientUnits="userSpaceOnUse"><stop offset="0" stop-color="#fff"/><stop offset="1" stop-color="#fff"/></linearGradient><linearGradient id="yq5tq" x1="137.06" x2="150" y1="79.63" y2="79.63" gradientUnits="userSpaceOnUse"><stop offset="0" stop-color="#fff"/><stop offset="1" stop-color="#fff"/></linearGradient><linearGradient id="yq5tr" x1="137.06" x2="150" y1="79.07" y2="79.07" gradientUnits="userSpaceOnUse"><stop offset="0" stop-color="#fff"/><stop offset="1" stop-color="#fff"/></linearGradient><linearGradient id="yq5ts" x1="148.38" x2="155.41" y1="79.89" y2="79.89" gradientUnits="userSpaceOnUse"><stop offset="0" stop-color="#fff"/><stop offset="1" stop-color="#fff"/></linearGradient><linearGradient id="yq5tt" x1="148.38" x2="155.41" y1="79.3" y2="79.3" gradientUnits="userSpaceOnUse"><stop offset="0" stop-color="#fff"/><stop offset="1" stop-color="#fff"/></linearGradient><linearGradient id="yq5tu" x1="169.18" x2="184.59" y1="71.88" y2="71.88" gradientUnits="userSpaceOnUse"><stop offset="0" stop-color="#fff"/><stop offset="1" stop-color="#fff"/></linearGradient><linearGradient id="yq5tv" x1="169.18" x2="184.59" y1="79.54" y2="79.54" gradientUnits="userSpaceOnUse"><stop offset="0" stop-color="#fff"/><stop offset="1" stop-color="#fff"/></linearGradient><linearGradient id="yq5tw" x1="182.71" x2="190.67" y1="79.96" y2="79.96" gradientUnits="userSpaceOnUse"><stop offset="0" stop-color="#fff"/><stop offset="1" stop-color="#fff"/></linearGradient><linearGradient id="yq5tx" x1="202.37" x2="216.9" y1="79.39" y2="79.39" gradientUnits="userSpaceOnUse"><stop offset="0" stop-color="#fff"/><stop offset="1" stop-color="#fff"/></linearGradient><linearGradient id="yq5ty" x1="202.37" x2="216.9" y1="78.3" y2="78.3" gradientUnits="userSpaceOnUse"><stop offset="0" stop-color="#fff"/><stop offset="1" stop-color="#fff"/></linearGradient><linearGradient id="yq5tz" x1="202.37" x2="216.9" y1="79.56" y2="79.56" gradientUnits="userSpaceOnUse"><stop offset="0" stop-color="#fff"/><stop offset="1" stop-color="#fff"/></linearGradient></defs><g><g><path fill="#2c6899" d="M13.395 51.125c3.535 2.297 7.76 4.07 12.559 5.271 4.81 1.204 10.147 1.815 15.862 1.815 5.3 0 9.484-.455 12.435-1.353 2.8-.85 4.22-2.01 4.22-3.445 0-.584-.213-1.243-.635-1.958-.412-.699-1.075-1.52-1.974-2.445a38.08 38.08 0 0 1-7.227 2.26c-2.49.505-5.146.762-7.895.762-8.862 0-16.237-2.166-21.918-6.438-5.718-4.298-8.617-9.874-8.617-16.573 0-6.786 3.076-12.345 9.143-16.526 6.019-4.146 14.027-6.25 23.8-6.25 2.502 0 4.867.162 7.028.482A33.13 33.13 0 0 1 56.02 8.12c.778-1.015 1.367-1.912 1.753-2.665.396-.772.596-1.438.596-1.98 0-1.243-.804-2.104-2.458-2.632-1.78-.567-4.936-.855-9.381-.855-5.782 0-11.38.618-16.637 1.838-5.247 1.216-9.855 2.958-13.697 5.18-5.183 3.002-9.13 6.456-11.73 10.266-2.587 3.793-3.9 8.014-3.9 12.543 0 4.303 1.076 8.276 3.196 11.81 2.127 3.546 5.368 6.742 9.633 9.501z"/></g><g><path fill="#2c6899" d="M71.117 11.212c1.794 0 3.294-.478 4.46-1.419 1.154-.934 1.716-2.065 1.716-3.458 0-1.18-.463-2.129-1.414-2.902-.964-.784-2.22-1.181-3.735-1.181-1.667 0-3.102.496-4.266 1.475-1.159.973-1.722 2.112-1.722 3.482 0 1.234.425 2.185 1.3 2.903.884.73 2.116 1.1 3.661 1.1z"/></g><g><path fill="#2c6899" d="M68.257 33.588c0 3.044-.142 6.729-.422 10.953-.277 4.207-.418 6.952-.418 8.157 0 2.512.397 3.553.73 3.983.461.594 1.397.894 2.784.894 1.056 0 2.169-.142 3.31-.425a19.49 19.49 0 0 0 3.264-1.144c-.784-1.481-1.378-3.329-1.77-5.5-.421-2.344-.636-5.335-.636-8.892 0-3.777.141-7.823.421-12.025.279-4.187.42-6.517.42-6.926 0-1.505-.234-2.53-.692-3.047-.447-.502-1.334-.757-2.637-.757-1.142 0-2.318.15-3.496.445a16.596 16.596 0 0 0-3.082 1.113c.751 1.417 1.308 3.108 1.657 5.034.377 2.081.567 4.82.567 8.137z"/></g><g><path fill="#2c6899" d="M90.757 56.652c0 .001-.088.037-.282.256.052.015.103.03.157.044.032-.09.073-.19.129-.3z"/></g><g><path fill="#2c6899" d="M103.211 57.012l.061-.735c0-.112-.032-.154-.032-.154-.067-.005-.162.008-.37.2l-.07.065-.293.084c-.54.268-.818.446-.946.546a1.504 1.504 0 0 1-.749.319c-.15.109-.355.2-.625.285l-.17.129a1.133 1.133 0 0 1-.129.11c.931.02 1.912.032 2.953.032.156 0 .308-.005.463-.006l.02-.167z"/></g><g><path fill="#2c6899" d="M89.93 53.46l.163-.233.117-.044c.545-.209.9-.521 1.086-.954.371-.867.922-1.048 1.318-1.048 1.182 0 2.101.447 2.732 1.329.61.851.905 1.532.905 2.083l.056.742c.001.331-.058.728-.18 1.24l-.058.132a2.956 2.956 0 0 0-.078.121c.178-.139.374-.269.583-.387.205-.115.254-.173.255-.175.22-.535.636-.929 1.222-1.141.603-.217.725-.322.737-.334l.253-.205.256-.48.127-.057c.603-.268.818-.447.892-.53.231-.256.537-.424.91-.498.221-.045.49-.192.8-.436l.147-.074.377-.101.324-.185c.093-.071.228-.128.458-.198.093-.027.207-.065.343-.114-.723-.04-1.444-.09-2.158-.161a48.66 48.66 0 0 1-4.797-.726l-.302-.061-.024-.307c-.2-2.64-.345-5.384-.429-8.15-.083-2.772-.125-5.66-.125-8.585 0-3.329.05-7.278.151-11.738.1-4.472.27-9.59.503-15.214l.015-.345.342-.042a72.256 72.256 0 0 1 4.76-.422 93.056 93.056 0 0 1 5.257-.14c9.173 0 16.74 2.136 22.491 6.352 5.79 4.245 8.724 9.842 8.724 16.634 0 5.348-1.816 9.938-5.39 13.703.234-.034.46-.074.713-.099l1.34-.465.414.115c-.005 0 .086-.013.34-.16.18-.105.56-.278 1.767-.573l1.247-.335.457.071c.014-.005.15-.034.363-.17.291-.187.7-.314 1.251-.389.562-.078.81-.146.92-.189l.603-.144c-.016-.002.065-.029.28-.149.298-.167.678-.252 1.128-.252.082 0 .188.017.437.095l.18-.05.026-.027c.078-.127.163-.25.238-.378 2.251-3.847 3.393-7.993 3.393-12.323 0-8.073-3.858-14.627-11.466-19.478-7.666-4.891-18.135-7.37-31.117-7.37-.126.001-3.137.086-7.06.2-4.41.128-8.843.218-13.189.272.884 1.975 1.557 4.715 2.002 8.16.486 3.774.733 8.961.733 15.418 0 5.948-.16 12.059-.478 18.164-.415 7.96-.478 9.338-.478 9.451 0 1.074.224 1.966.663 2.699a13.63 13.63 0 0 0 1.197-.769c.436-.322.883-.515 1.333-.576z"/></g><g><path fill="#2c6899" d="M128.363 52.919h-.617c.021.006-.097.062-.419.275l-.132.058-.44.104-.3.15c-.014.007-.122.073-.602.455a7.427 7.427 0 0 1-.812.558 46.434 46.434 0 0 0 2.934-1.146 3.22 3.22 0 0 1 .388-.454z"/></g><g><path fill="#2c6899" d="M138.967 45.463l-1.288.359h-.257c-.005 0-.125.007-.471.225l-.116.072-.675-.058c-.63.325-1.086.477-1.428.477-.04 0-.15-.013-.328-.047l-2.827.777c-.024.008-.3.13-1.384 1.086l-.074.065-.424.094c-.463 0-.805-.481-1.021-.842-.273-.455-.416-.882-.436-1.274-5.582 3.657-12.797 5.534-21.47 5.59.34.217.653.488.915.851.619.861.92 1.557.92 2.127l-.054.506.11.895-.19 1.341a72.824 72.824 0 0 0 6.89-.766l.092-.113c.297-.351.604-.525.92-.525.376 0 .592.149.713.338.76-.144 1.506-.302 2.24-.471l.368-.677c.079-.137.246-.465.508-.987l.108-.135.698-.565.125-.011c.29-.024.354-.136.372-.345.048-.557.408-1.034 1.069-1.419l.29-.412c.257-.264.746-.621 2.54-1.264.294-.181.424-.315.47-.376.184-.19.337-.22.44-.22l.099.013.405.1c.147-.007.392-.045.78-.178a3.922 3.922 0 0 1 1.262-.221l1.18-.057h.004c.143 0 .3.036.665.211.18.088.415.132.696.132.535 0 1.025.236 1.457.703.085.092.155.183.223.273a36.7 36.7 0 0 0 1.495-.963c2.172-1.47 4.09-3.08 5.754-4.816-.52.111-.95.262-1.262.46z"/></g><g><path fill="#2c6899" d="M91.087 57.97c-.024.38-.024 1.036-.546 1.036h-.222a6.904 6.904 0 0 0-.279.36c-.27.376-.54.623-.826.758-.072.035-.098.065-.098.163v.326l-.185.37-.187.044c-.59.137-.915 1.226-.915 3.066 0 .143.056.4.323.828.3.476.457.523.464.526a2.9 2.9 0 0 1 .615.233c.038.02.068.034.091.045.055-.063.16-.206.311-.521l.075-.155.164-.055c.064-.02.208-.09.45-.323.352-.336.492-.441.682-.441h.076c.11-.285.195-.427.347-.501l.134-.04c.338-.04.515-.122.576-.197.071-.368.267-1.208.933-1.208.116 0 .204.028.452.202.244-.277.373-.4.482-.452a3 3 0 0 0 .288-.215c.042-.76.46-.954.714-1.002.064-.012.327-.101 1.042-.746a51.224 51.224 0 0 1 1.705-1.462c-2.815-.12-5.013-.353-6.624-.701-.016.019-.024.044-.042.063z"/></g><g><path fill="#2c6899" d="M115.72 57.733l-.296.148-.677.594c-.79.485-1.323.8-1.66.993a.896.896 0 0 0-.453.58l-.036.137-.114.085c-.265.198-.295.383-.295.504v.17l-.121.119a.56.56 0 0 1-.401.175l-.151-.028-.25-.086c-.03 0-.091 0-.164.194l-.094.144c-.415.415-.645.6-.79.695-.22.364-.504.598-.85.697l-1.028.273c-.35 0-.55-.324-.778-.882l-.603-1.357v-.257c0-.363.178-.54.31-.62.253-.256.389-.753.4-1.432a90.074 90.074 0 0 1-3.644.113l-.055.453c.005-.011.016.043.057.148.078.195.115.348.115.479 0 .14-.052.275-.167.428.074.216.11.405.11.574 0 .24.038.438.114.59.167.334.2.47.2.583v.097l-.042.143c-.092.183-.157.317-.196.403.017.026.04.079.07.142.118.248.169.415.169.559 0-.041.072.187.606.993.51.77.757.882.802.895.295.095.587.228.87.396.215.127.333.16.382.169l.558-.117.844.12c-.014-.007.022-.025.08-.074l.429-.308c.738-.395.963-.688 1.03-.87l.056-.15.459-.23h.372a.472.472 0 0 0 .033-.194v-.188l1.262-1.066c.15-.153.35-.308.57-.44l.734-.381 1.414-1.495c.494-.513.859-.9 1.095-1.165a.928.928 0 0 0 .255-.644l-.113-.904c-.128.023-.26.043-.39.065z"/></g><g><path fill="#2c6899" d="M87.184 55.888c-.402.269-.673.576-.788.922l-.58 1.573c.016.553.207.553.31.553h.04c.362-.26.559-.364.683-.413l.053-.084c.283-.447.546-.707.824-.82.059-.022.262-.131.89-.581a5.216 5.216 0 0 1-1.432-1.15z"/></g><g><path fill="#2c6899" d="M94.98 57.254c0-.247.118-.546.371-.937.095-.41.144-.73.144-.952l-.057-.742c0-.284-.13-.769-.753-1.64-.476-.665-1.154-.988-2.07-.988-.083 0-.333 0-.57.554-.259.603-.738 1.055-1.425 1.346l-.246.351-.2.009c-.355.016-.722.162-1.092.436-.335.248-.748.508-1.197.772.452.486 1.041.874 1.766 1.168.368-.483.67-.727.96-.779.02-.004.22-.056.827-.615l.398-.366.342.684v.096c0 .136-.032.284-.448.947-.164.26-.25.429-.298.54.991.205 2.218.369 3.676.49a.64.64 0 0 1-.128-.374z"/></g><g><path fill="#2c6899" d="M107.85 56.309l-.004-.057-.118-.764.063-.568c-.003-.222-.135-.724-.769-1.606-.486-.676-1.13-1.004-1.97-1.004-.015 0-.145.008-.613.187a13.6 13.6 0 0 1-.873.31 1.323 1.323 0 0 0-.216.078l-.539.298-.349.094c-.39.298-.743.474-1.077.542-.2.04-.35.12-.464.245-.196.218-.536.437-1.037.67l-.268.434-.286.229c-.077.08-.293.239-1.003.494a1.235 1.235 0 0 0-.763.718c-.075.187-.258.356-.592.542a3.76 3.76 0 0 0-.579.399 2.022 2.022 0 0 1-.21.158c.777.05 1.613.09 2.502.12.106-.092.182-.161.223-.201v-.075l.181-.121a2.84 2.84 0 0 0 .393-.292l.402-.275c.366-.11.466-.196.483-.212l.12-.12h.168a.659.659 0 0 0 .407-.158c.233-.18.612-.397 1.156-.66l.171-.052c.283-.246.531-.36.775-.36.445 0 .92.265.92 1.008l-.054.67.115.725-.02.17a85.414 85.414 0 0 0 3.513-.11z"/></g><g><path fill="#2c6899" d="M91.13 57.907c1.61.35 3.808.581 6.623.701.081-.066.153-.129.235-.196.091-.073.16-.13.233-.192-2.94-.112-5.237-.342-6.902-.69a.987.987 0 0 1-.19.377z"/></g><g><path fill="#2c6899" d="M107.674 58.484l-.034-.312a87.8 87.8 0 0 1-3.566.113l-.049.407a90.024 90.024 0 0 0 3.644-.114c.001-.033.005-.06.005-.094z"/></g><g><path fill="#2c6899" d="M87.531 55.671c-.039.021-.07.043-.11.064-.087.048-.16.101-.238.153.39.449.864.836 1.433 1.15.111-.079.236-.169.375-.271-.58-.297-1.07-.659-1.46-1.096z"/></g><g><path fill="#2c6899" d="M116.079 57.345l-.33.357.39-.064-.014-.105.148-.328-.07.012a1.192 1.192 0 0 0-.124.128z"/></g><g><path fill="#2c6899" d="M116.203 57.217l.07-.012.029-.062a.593.593 0 0 0-.1.074z"/></g><g><path fill="#2c6899" d="M87.531 55.671c.39.437.88.799 1.46 1.096l.135-.098.142-.105.38.071.003-.004c-.725-.294-1.314-.682-1.766-1.168-.118.069-.229.138-.354.208z"/></g><g><path fill="#2c6899" d="M95.673 57.89c-.276 0-.455-.111-.564-.262-1.459-.121-2.686-.285-3.677-.49a.707.707 0 0 0-.057.172c-.009.082-.035.148-.056.22 1.666.348 3.962.579 6.902.69.204-.168.357-.298.465-.392a79.17 79.17 0 0 1-2.502-.12c-.184.122-.35.182-.511.182z"/></g><g><path fill="#2c6899" d="M107.614 57.933l.024-.168a85.421 85.421 0 0 1-3.513.11l-.05.41a87.75 87.75 0 0 0 3.565-.112z"/></g><g><path fill="#2c6899" d="M159.139 64.831l-.372-.687c-.296-.493-.531-.689-.675-.763a3.632 3.632 0 0 1-.724-.47c-.051-.045-.127-.1-.19-.1-.167 0-.246.065-.296.122-.19.21-.463.411-.84.616a.76.76 0 0 0-.41.553 3.12 3.12 0 0 1-.415 1.071c-.105.16-.165.304-.176.425.008.004.023.024.048.051.092.102.239.307.48.93.136.354.486.77 1.042 1.237.763.645 1.036.677 1.083.677.725 0 1.392-.589 1.983-1.752.073-.169.169-.349.277-.519.079-.126.08-.183.08-.183 0-.2-.026-.55-.196-.648z"/></g><g><path fill="#2c6899" d="M195.347 56.717a.744.744 0 0 0-.073-.143c-.122.072-.403.258-1.025.744-.825.645-.962 1.054-.969 1.24l-.007.159-.112.112c-.153.155-.397.235-.788.262-.093.006-.235.04-.389.267-.245.354-.497.573-.773.67-.015.012-.234.173-.905 1.198l-.154.235-.413-.092c-.643.25-.88.419-.965.5-.289.277-.52.399-.753.399-.422 0-.635-.368-.635-1.094v-.114c0-.177.081-.416.463-.571-.016-.01.013-.098.024-.294.013-.264.12-.874.88-3.128 1.104-2.028 1.265-2.776 1.265-3.046 0-.577-.212-.758-.372-.844-.437-.234-.844-.581-1.21-1.032a1.195 1.195 0 0 0-.985-.465c-.61 0-.87.088-.972.14-.114.06-.489.323-1.71 1.4a1.126 1.126 0 0 1-.506.435l-.559.46a2.596 2.596 0 0 1-.654.73c-.187.143-.345.34-.469.588l-.089.178-.154.036-.189.119c-.279.177-.474.468-.599.889l-.05.168-.158.08c-.069.034-.184.08-.52.168l-.145.18-1.794 1.598-.533.265a3.698 3.698 0 0 0-.05.245l-.045.243-.236.073a3.225 3.225 0 0 1-.516.122c-.025.027-.054.063-.09.106-.15.183-.29.327-.425.439-.107.09-.285.27-.536.538-.31.334-.655.567-1.023.693-.33.114-.396.204-.398.207a1.925 1.925 0 0 1-.563.499 3.84 3.84 0 0 0-.426.295.931.931 0 0 1-.604.238c-.237 0-.635-.124-.635-.95 0-.198.061-.544.518-1.632.298-.713.528-1.188.712-1.472V58l.387-.387.348-.05c.068-.113.155-.263.262-.452l.07-.125.133-.054c.09-.034.184-.154.27-.338l.447-.976v-.678l.376-.301.101-.02c.251-.044.296-.136.296-.313 0-.601-.303-1.246-.899-1.92-.607-.685-.863-.863-.942-.907h-.013l-.417.102-1.076.27c-.205 0-.298.074-.35.13-.224.236-.437.362-.65.382-.442.46-.586.644-.634.713-.373.54-.73.424-.957.382l-.247.145c-.38.616-.696.88-1.043.88h-.092c-.167.14-.259.296-.279.47l-.063.54-.817-.347c-.114.015-.313.088-.535.426-.293.448-.442.665-.6.752l-.023.018v.367l-.185 1.058c.031.022.081.054.161.095.15.075.243.115.3.136.076-.055.24-.192.548-.512l.094-.097.305-.051c.032-.063.08-.171.146-.345l.1-.261h.281c.111 0 .207.037.305.106.082-.05.173-.101.274-.156.175-.096.241-.167.264-.201.135-.202.344-.337.623-.398l.33-.15c.247-.152.371-.203.503-.203.302 0 .521.219.521.52 0 .278-.144.584-.464.985a1.01 1.01 0 0 1-.094.372l-.2.4-.17-.107c-.068.108-.174.3-.32.643-.332.773-.6 1.29-.822 1.587-.082.108-.219.419-.219 1.273 0 .462.09.665.144.743.158.232.257.39.3.476.964 1.948 2.165 2.895 3.67 2.895.008-.004.232-.066.893-.761.6-.63 1.082-.954 1.505-1.006.1-.074.274-.278.448-.838l.101-.32.626.069.181-.195c.42-.28.651-.61.71-1.01l.051-.346h.648l.371-.348c.268-.196.432-.351.53-.493.143-.21.4-.421.796-.652l.214-.893.713.084.191-.11c.05-.074.11-.146.18-.216l.136-.136.12.012c.06-.053.222-.224.506-.732l.116-.208h.24c.166 0 .416-.051.66-.49.298-.545.666-.917 1.091-1.106l.656-.292-.2 1.658c.002.152.018.337.051.5l.031.156-.483.794a1.09 1.09 0 0 1-.048.087l.05.969c0 .162-.038.228-.339.686-.19.292-.205.396-.205.399l.061.699-.155.9c.085.119.282.383.737.962.682.866.94 1.149 1.036 1.233.172.154.355.336.546.549.131.146.193.173.195.174.35-.01.626-.115.792-.334l.52-.663c.19-.247.365-.413.604-.413l.406-.062.332-.332c.22-.338.534-.64.94-.901.438-.281.594-.435.648-.501.226-.282.373-.533.856-.293l.446-.328a.93.93 0 0 0 .243-.124l.124-.173c.293-.293.626-.664 1.018-1.133.476-.57.733-.777.931-.86.084-.117.164-.22.256-.33l.142-.164.554.06c.053-.068.146-.211.272-.487l.075-.167.175-.054c.086-.026.086-.037.086-.097v-.438a.472.472 0 0 0-.043-.038c-.178-.151-.332-.396-.47-.748z"/></g><g><path fill="#2c6899" d="M220.015 56.305s.049.026.144.144c.111.14.137.206.14.206-.001.555-.175 1.14-.519 1.741l-.154.874-.109.205c-.305.18-.508.377-.62.601-.019.038-.115.186-.538.476l-.313.394c-.459.175-.78.452-.957.827-.122.261-.245.28-.291.287-.34.05-.678.26-1.032.642a3.847 3.847 0 0 1-.551.198l-.238.07-.078.392c-.146.11-.364.204-.64.282-.441.123-.767.241-.995.36-.17.09-.239.11-.231.111a1.948 1.948 0 0 1-.824-.176 3.508 3.508 0 0 0-.896-.283.154.154 0 0 1-.017-.054c-.033-.21-.149-.44-.368-.718-.108-.139-.166-.344-.171-.61l.106-.5.008-.085c0-.176-.077-.355-.237-.546a1.108 1.108 0 0 1-.021-.027.662.662 0 0 0 .087-.343c0-.138-.027-.288-.078-.443-.026-.078-.033-.123-.037-.123l-.001.001.173-1.438c0-.397-.27-.579-.521-.579-.2 0-.395.113-.696.4a.579.579 0 0 1-.421.173h-.135l-.108.082c-.215.161-.378.438-.497.846a2.138 2.138 0 0 1-.43.37l-.227.286-.034.075c-.001 0-.04.043-.189.095-.336.115-.57.272-.67.425l-.149.15-.539-.057-.136.131c-.056.054-.121.131-.387.59a1.954 1.954 0 0 1-.564.62l-2.143 1.75c-.216.143-.54.328-.964.55l-.208.192c-1.808 1.198-2.633 1.45-3.009 1.45-.459 0-1.014-.134-1.647-.398-.528-.22-.836-.473-.878-.75l-.286-1.175-.053-.123c-.128-.199-.193-.5-.193-.896 0-.196.016-.271.015-.277l.043-.085-.053-1.139a.799.799 0 0 1 .132-.009h.438l-.084-1.13c.033-.072.134-.264.433-.733.411-.647.541-.769.555-.78l.479-.589-.014-.157c-.002-.033.009-.16.27-.393.311-.28.566-.573.757-.87.096-.15.323-.405.92-.818l.859-.859a8.35 8.35 0 0 1 2.018-1.504c.155-.052.36-.185.857-.667a2.949 2.949 0 0 1 1.059-.667 8.72 8.72 0 0 0 1.383-.646c.477-.276.715-.317.814-.317h.228c.125 0 .209 0 1.623-.719h.024c.009.001.097.025.396.185l.147.048h.197l.546-.273c.003-.002.031-.015.104-.015.6 0 1.411.216 1.544 2.1.085.763.47.877.691.877.386 0 .717-.355 1.179-1.268.28-.552.897-.82 1.885-.82.428 0 .823.141.823 1.166 0 1.122-.518 2.21-1.54 3.232l-.077.106a2.196 2.196 0 0 0-.192.565l-.401 1.173-.019.165c-.001.003-.02.074-.155.241-.225.277-.334.534-.333.817l.053.671-.111.813c0 .493.111.827.342 1.025l.16.136.203-.05c.697-.175 1.218-.479 1.548-.903.303-.385.41-.457.416-.46l.414-.165.07-.119c.146-.243.317-.449.51-.61l.363-.318a.855.855 0 0 0 .744-.694c.028-.122.154-.233.376-.33.431-.185.812-.539 1.166-1.08.216-.334.429-.518.537-.528zM195.688 62.7zm14.631-6.534c1.048-1.062 1.133-1.328 1.133-1.545 0-.245-.179-.493-.579-.493h-.117l-.207.13-.419-.046-.469.05-.41-.206-.432.066-.579-.108c-.377 0-.709.081-.987.24-.127.07-.432.194-1.157.373a5.005 5.005 0 0 0-1.821.856c-.618.463-.822.477-.844.477h-.259l-.109.234c-.046.098-.251.393-1.165 1.037-.514.191-.875.58-1.054 1.131-.594.485-.751.654-.786.82l-.14.338a1.512 1.512 0 0 1-.378.2c-.263.098-.59.341-.662.933a1.187 1.187 0 0 1-.292.644c-.291.341-.426.62-.426.88 0 .446 0 1.807.951 1.807.152 0 .404-.039 1.113-.33.742-.306.893-.42.974-.502.003-.002.064-.053.362-.159l.544-.286.148-.104a.936.936 0 0 0 .507-.31c.028-.03.122-.117.396-.254.28-.14.507-.328.675-.56.326-.19.825-.47 1.536-.868l.565-.43c.478-.22.755-.408.894-.602.019-.026.105-.124.413-.268l.19-.089.038-.207c.054-.3.214-.515.502-.677.423-.237.697-.49.833-.769.376-.29.885-.762 1.518-1.403z"/></g><g><path fill="#2c6899" d="M128.477 54.074l-.07.111-.317.127a3.438 3.438 0 0 1-.726.59c-.332.21-.404.287-.41.295l-.347.347a13.19 13.19 0 0 0-1.316.941c-.34.288-.712.53-1.105.716l-1.062.47h-.085a.554.554 0 0 1-.579-.58c0-.12.035-.295.357-.988-.634.188-1.277.367-1.93.534-.336.085-.684.162-1.026.243l-.113.206c-.102.3-.19.471-.276.581l-.374 1.39c-.062.247-.288.514-.755.885-.264.21-.404.698-.404 1.412 0 .146.03.155.071.165.337.091.593.252.763.48l.062.117c.33 1.017.505 1.49.597 1.711l.431-.073.094.357c.264.985.654.985.782.985l.16.034c.144.061.341.164.588.308.165.096.308.145.426.145.302 0 .63-.052.971-.155l.567-.188h.066c.241 0 .4.185.554.392a.482.482 0 0 0 .05.057l.712-.102c.016 0 .073-.016.25-.104l2.402-.86c.55-.363.755-.45.874-.484a.547.547 0 0 0 .121-.043c.233-.212.62-.358 1.157-.427.35-.044.434-.19.473-.34.194-.753.653-.865.91-.865h.45c.22-.24.574-.473 1.098-.723a.906.906 0 0 0 .16-.356c.085-.417.368-.666.755-.666a.53.53 0 0 1 .393.15c.13-.148.286-.31.465-.489l.954-1.096c.134-.206.363-.38.65-.476.05-.016.238-.102.651-.538l.12-.127h.205c.028-.054.072-.16.118-.358.112-.482.278-.842.51-1.097.096-.106.14-.174.158-.207l-.142-.765.138-.715a2.316 2.316 0 0 1-.536.28c.01.003-.044.09-.07.36l-.02.197-1.552.983c-.173.054-.173.113-.173.184v.137c.04.13.058.245.058.35 0 .301-.22.52-.522.52a.505.505 0 0 1-.467-.333 5.466 5.466 0 0 1-.413.315 3.083 3.083 0 0 0-.594.543c-.248.3-.56.477-.929.53-.2.028-.242.104-.259.136-.168.304-.51.506-1.046.618-.28.06-.5.27-.673.645l-.06.13-.328.164h-.496c.002.001-.047.013-.142.11l-.336.276c-.049.025-.1.106-.138.222l-.048.143-.512.307h-.113c-.046 0-.229.021-.64.281-.295.186-.495.388-.594.601l-.163.35-.508-.205a1.801 1.801 0 0 1-.499.09c-.29 0-.553.074-.805.227a2.347 2.347 0 0 1-1.227.345l-1.316.196h-.015c-1.635 0-1.967-.67-1.967-1.233 0-.05 0-.1.124-.672.075-.345.13-.63.168-.854l.03-.18.155-.098c.307-.192.615-.305.918-.338l.615-.648.302.061.315-.29.13-.017c.096-.012.127-.033.127-.033-.027-.268.08-.556.291-.819l.177-.222.27.09c.16.054.266.087.317.097-.035-.007.231-.078 1.094-.943l.12-.119h.168c.177 0 .2-.057.22-.11.125-.329.39-.626.787-.883l.122-.079.378.042c.282-.525.688-1.088 1.235-1.088.138 0 .264.038.366.11.03-.023.073-.06.132-.12a2.45 2.45 0 0 1 .634-.476c.073-.037.254-.157.636-.538l.086-.086.118-.026c.158-.033.532-.197 1.253-.92.483-.484.737-.95.778-1.392a42.392 42.392 0 0 1-4.159 2.113c-.01.016-.02.025-.03.042z"/></g><g><path fill="#2c6899" d="M131.403 50.572c-.403 0-.756-.07-1.048-.21-.241-.117-.317-.134-.325-.135l-1.152.06c-.336 0-.672.06-1.018.178-.437.15-.794.222-1.09.222l-.098-.012-.27-.067c-.132.138-.355.304-.655.481-1.661.602-2.127.917-2.263 1.052l-.353.511-.082.045c-.462.253-.71.53-.735.823-.051.592-.407.976-.983 1.07l-.442.357c-.25.5-.412.813-.486.943l-.016.03c.099-.026.2-.047.299-.072.903-.23 1.78-.49 2.649-.762.324-.553.65-.915.992-1.09a6.302 6.302 0 0 0 1.02-.672c.52-.413.665-.507.744-.547l.432-.203.416-.099c.474-.31.642-.37.793-.37h.545c.329-.195.585-.286.8-.286.712 0 .892.371.935.608a39.4 39.4 0 0 0 2.362-1.28c-.036-.044-.07-.088-.112-.133-.275-.297-.555-.442-.86-.442z"/></g><g><path fill="#2c6899" d="M129.252 53.298c-.162.056-.421.233-.745.734a42.083 42.083 0 0 0 4.16-2.113c.003-.041.017-.082.017-.122a.75.75 0 0 0-.086-.308 39.956 39.956 0 0 1-2.734 1.468c-.18.19-.461.289-.612.34z"/></g><g><path fill="#2c6899" d="M122.817 56.104c.068-.146.144-.305.239-.5a53.21 53.21 0 0 1-2.27.639c-.218.056-.443.103-.662.157l-.263.48c.342-.081.69-.157 1.026-.243a54.915 54.915 0 0 0 1.93-.533z"/></g><g><path fill="#2c6899" d="M130.028 52.57a.551.551 0 0 1-.164.387 39.956 39.956 0 0 0 2.734-1.468 1.685 1.685 0 0 0-.224-.342 39.4 39.4 0 0 1-2.362 1.28.803.803 0 0 1 .016.142z"/></g><g><path fill="#2c6899" d="M123.056 55.604c0-.003.002-.005.003-.008a8.37 8.37 0 0 1 .275-.51c-.867.273-1.745.532-2.648.763-.098.025-.2.046-.3.07l-.262.48c.22-.053.445-.1.662-.156a53.257 53.257 0 0 0 2.27-.64z"/></g><g><path fill="#2c6899" d="M142.664 43.832l.317.045c.018-.02.042-.047.071-.085.164-.212.407-.413.741-.614l.155-.093.172.052c.178.053.352.105.497.174l1.273-.622.205.208c.105.106.187.217.245.331l.052.101-.009.114c-.044.577-.26 1.192-.645 1.826-.34.56-.576 1.006-.7 1.325l-.079.217c-.118.334-.296.841-.868 2.037-.47.987-.706 1.562-.774 1.778.042.208.018.681-.09 2.081l-.02.311-.11.114a5.631 5.631 0 0 0-.292.304l-.049.66-.464 2.486-.044.764.271 2.215.178.571-.06 1.186c0 .191.094.822.724 2.682.438 1.297 1.053 1.927 1.88 1.927.005 0 .133-.003.43-.268.195-.175.3-.338.31-.486.021-.28.063-.545.126-.787.063-.243.073-.355.073-.399 0-1.247-.25-2.162-.744-2.72-.628-.713-.947-1.396-.947-2.03 0-.102.032-.192.08-.269-.123-.514-.137-.728-.137-.847l.17-1.289-.068-.525.053-.11c.278-.57.418-1.04.418-1.395v-.127a1.73 1.73 0 0 1-.057-.36c0-.079 0-.14.386-1.467l-.1-.45c0-.369.135-.703.4-.994l.032-.088c.013-.224.078-.395.2-.519-.023.013.034-.09.128-.437.107-.394.28-.772.513-1.122.216-.323.432-.623.65-.898l.591-.846c.128-.097.27-.235.422-.412.186-.217.397-.366.63-.446l.002-.004c.164-.425.48-.732.918-.896l1.257-2.288.078-.054c.086-.06.134-.099.16-.12.323-.756.777-1.284 1.352-1.57l.103-.036 1.46-.286c.396-.107.535-.122.622-.122l.62-.109c1.438-.435 1.502-.435 1.584-.435.048 0 .16-.012.375-.09a2.18 2.18 0 0 1 .741-.139c.24 0 .4.116.474.264.257.33.396.483.468.556.273-.05.568-.282.88-.689l1.275-1.607c.122-.366.278-.7.465-.996.19-.298.21-.399.21-.404 0-.218-.04-.402-.539-.402h-.03l-.462.171c-.802.046-1.074.177-1.153.231-.336.23-.526.314-.7.314l-.144-.027-.16-.059h-.19c-.323.13-.55.202-.709.224-.036.005-.208.042-.872.293-.828.312-.872.312-.96.312-.162 0-.335-.045-.525-.137l-.004.002c-.328.168-.57.25-.758.25-.807 0-.894-.445-.894-.636 0-.158.022-.302.064-.429.001-.003.02-.084.008-.37-.01-.312.04-.623.154-.93l.102-.28-.257-.978c-.07-.336-.26-1.07-.607-1.07-.083 0-.398.06-1.059.82-.246.486-.57.661-.847.71a1.544 1.544 0 0 0-.042.083c-.099.207-.19.365-.276.482-.349.732-.7 1.227-1.075 1.512-.27.208-.524.557-.75 1.038-.3.63-.58 1.05-.984 1.05l-.413-.05c-.084.048-.214.105-.519.202-.217.07-.497.19-.834.362a3.077 3.077 0 0 1-1.405.315l-.244-.05a28.76 28.76 0 0 1-2.372 3.3z"/></g><g><path fill="#2c6899" d="M142.785 40.935c-.317.177-.483.234-.606.248l-.424.106c-.172.073-.535.15-1.059.223-.53.073-.795.187-.924.269-.309.197-.59.294-.863.294l-.347-.05-1.093.293c-1.08.264-1.442.42-1.56.488-.323.187-.553.27-.749.27l-.253-.025-.2-.073-1.168.439c-.717.068-1.34.175-1.883.318a25.31 25.31 0 0 1-2.376 1.947c-.058.042-.12.08-.179.122-.032.16-.058.323-.058.499 0 .267.111.587.328.949.171.285.281.393.332.432l.026-.006c1.056-.925 1.408-1.121 1.611-1.188l3.033-.834.095.019c.143.029.236.046.28.05.106-.001.418-.058 1.138-.44l.106-.056.645.057c.321-.19.573-.277.784-.277h.2l1.063-.311c.601-.366 1.434-.591 2.521-.7a28.815 28.815 0 0 0 2.433-3.175.83.83 0 0 0-.146-.037c-.285 0-.53.05-.707.149z"/></g><g><path fill="#2c6899" d="M142.388 43.863a28.848 28.848 0 0 0 2.372-3.299l-.02-.004-.18.181-.476.137a28.784 28.784 0 0 1-2.27 3.05z"/></g><g><path fill="#2c6899" d="M129.415 45.068c.422-.315.827-.639 1.217-.97-.55.257-.956.58-1.217.97z"/></g><g><path fill="#2c6899" d="M129.415 45.068a2.06 2.06 0 0 0-.313.735c.058-.04.12-.08.178-.122a25.31 25.31 0 0 0 2.376-1.947 6.15 6.15 0 0 0-1.024.364c-.39.331-.795.655-1.217.97z"/></g><g><path fill="#2c6899" d="M141.365 43.98l.45-.051a28.694 28.694 0 0 0 2.269-3.051l-.147.042-.12-.04a4.657 4.657 0 0 0-.18-.057A28.674 28.674 0 0 1 141.206 44c.056-.005.103-.015.16-.02z"/></g><g><path fill="url(#yq5ta)" d="M7.306 70.318a2.742 2.742 0 0 0-.66.821c-.182.337-.272.69-.272 1.06 0 .204.143.35.43.44.146.046.286.08.419.103.133.023.259.033.379.033.095 0 .186-.01.269-.032a.878.878 0 0 0 .435-.26 1.13 1.13 0 0 0 .165-.228c.204-.348.306-.767.306-1.258 0-.277-.053-.483-.157-.618a.455.455 0 0 0-.121-.111c-.186-.118-.449-.177-.79-.177-.059 0-.193.076-.403.227z"/></g><g><path fill="url(#yq5tb)" d="M27.621 80.569l-.006.076.006-.076a141.694 141.694 0 0 1 0 0z"/></g><g><path fill="url(#yq5tc)" d="M14.533 79.604a.194.194 0 0 1 0 0z"/></g><g><path fill="url(#yq5td)" d="M27.836 79.448c.03.053.054.118.072.193a3.61 3.61 0 0 0 0 0 .748.748 0 0 0-.072-.193c-.03-.052-.062-.079-.098-.079.036 0 .068.027.098.079z"/></g><g><path fill="url(#yq5te)" d="M53.458 77.609a1.295 1.295 0 0 0-.109.236c-.096.269-.169.642-.216 1.116a7.9 7.9 0 0 0-.026.34c.041-.051.083-.102.124-.147a1.7 1.7 0 0 1 .268-.244.88.88 0 0 1 .518-.175c.127 0 .251.036.38.111.052.029.106.064.162.105.037.029.062.07.095.103.029-.238.054-.471.054-.682 0-.121-.021-.245-.063-.374a1.278 1.278 0 0 0-.171-.345.988.988 0 0 0-.246-.249.508.508 0 0 0-.292-.097c-.197 0-.357.102-.478.302z"/></g><g><path fill="url(#yq5tf)" d="M53.551 79.72l-.099.125c-.131.193-.265.385-.396.579.131-.194.265-.386.396-.579l.099-.125a2.726 2.726 0 0 0 0 0z"/></g><g><path fill="url(#yq5tg)" d="M66.624 76.097a.535.535 0 0 0-.163.145 1.688 1.688 0 0 0-.242.454c-.013.037-.017.072-.029.109a3.01 3.01 0 0 0-.109.405 4.111 4.111 0 0 0-.036.221c-.009.061-.015.11-.018.149-.012.134-.026.309-.04.501a.982.982 0 0 1 .668-.275c.322 0 .576.192.691.486l.022-.169.036-.282.031-.234c.018-.139.027-.224.027-.254 0-.099-.011-.221-.032-.369a2.174 2.174 0 0 0-.107-.431 1.218 1.218 0 0 0-.198-.356.377.377 0 0 0-.309-.147.41.41 0 0 0-.192.047z"/></g><g><path fill="url(#yq5th)" d="M66.825 78.882a2.029 2.029 0 0 1 0 0z"/></g><g><path fill="url(#yq5ti)" d="M66.377 78.542a9.273 9.273 0 0 1-.332.306 12.8 12.8 0 0 1-.12.103c-.013.176-.025.338-.037.525l-.081 1.19-.003.038c.011-.01.025-.022.034-.032.036-.038.093-.092.171-.164a5.613 5.613 0 0 0 .471-.522.945.945 0 0 0 .157-.266c.063-.162.11-.313.141-.453.032-.14.047-.268.047-.385 0-.105-.007-.209-.023-.312-.014-.101-.064-.153-.147-.153a.386.386 0 0 0-.278.125z"/></g><g><path fill="url(#yq5tj)" d="M66.377 78.542a9.273 9.273 0 0 1-.332.306 12.8 12.8 0 0 1-.12.103c-.013.176-.025.338-.037.525l-.081 1.19-.003.038c.011-.01.025-.022.034-.032.036-.038.093-.092.171-.164a5.613 5.613 0 0 0 .471-.522.945.945 0 0 0 .157-.266c.063-.162.11-.313.141-.453.032-.14.047-.268.047-.385 0-.105-.007-.209-.023-.312-.014-.101-.064-.153-.147-.153a.386.386 0 0 0-.278.125z"/></g><g><path fill="url(#yq5tk)" d="M66.778 79.267a1.731 1.731 0 0 1 0 0z"/></g><g><path fill="url(#yq5tl)" d="M126.277 77.845c-.032.09-.062.191-.088.303-.057.239-.1.53-.132.871.139-.195.28-.388.417-.581l.146-.207.251-.041a.96.96 0 0 1 .622.091.7.7 0 0 1 .141.103l.001-.012a1.306 1.306 0 0 0-.232-.719.991.991 0 0 0-.247-.249.507.507 0 0 0-.291-.097c-.264 0-.459.181-.588.538z"/></g><g><path fill="url(#yq5tm)" d="M127.008 78.786l.042-.001-.042.001z"/></g><g><path fill="url(#yq5tn)" d="M126.348 79.658a87.346 87.346 0 0 0 .001 0c-.11.151-.239.314-.358.471.119-.157.247-.32.357-.471z"/></g><g><path fill="url(#yq5to)" d="M127.241 79.471a3.163 3.163 0 0 0 0 0 1.648 1.648 0 0 1 0 0z"/></g><g><path fill="url(#yq5tp)" d="M139.73 78.57a2.162 2.162 0 0 0 0 0c-.014-.101-.064-.153-.147-.153.083 0 .133.052.147.153z"/></g><g><path fill="url(#yq5tq)" d="M139.706 79.267z"/></g><g><path fill="url(#yq5tr)" d="M139.706 79.267a1.792 1.792 0 0 1 0 0z"/></g><g><path fill="url(#yq5ts)" d="M148.826 80.003c-.096.083-.207.149-.312.22.105-.071.216-.137.312-.22a4.608 4.608 0 0 1 0 0z"/></g><g><path fill="url(#yq5tt)" d="M149.52 79.272a1.803 1.803 0 0 1 0 0 .402.402 0 0 0 0 0z"/></g><g><path fill="url(#yq5tu)" d="M177.623 69.687a.622.622 0 0 0-.172.11c-.114.098-.201.26-.26.486-.037.152-.08.321-.131.505a4.805 4.805 0 0 1-.188.549 3.284 3.284 0 0 1-.268.517 1.945 1.945 0 0 1-.373.424c-.033.027-.079.047-.115.073-.065.045-.126.091-.204.13a3.05 3.05 0 0 1-.381.158 2.53 2.53 0 0 1-.39.103 1.933 1.933 0 0 1-.336.033c-.395 0-.735-.068-1.022-.209a1.946 1.946 0 0 1-.692-.538 1.83 1.83 0 0 1-.227-.352 2.3 2.3 0 0 1-.163-.418 4.295 4.295 0 0 1-.106-.47 5.021 5.021 0 0 1-.059-.505c-.013-.181-.078-.314-.198-.401a.74.74 0 0 0-.448-.131.619.619 0 0 0-.224.046.504.504 0 0 0-.211.163.977.977 0 0 0-.157.317 1.66 1.66 0 0 0-.063.493 4.565 4.565 0 0 0 .085.527c.028.126.06.252.099.379.038.13.079.239.121.33.072.154.153.302.243.444a3.768 3.768 0 0 0 .638.764c.121.11.249.211.384.304.269.185.562.328.879.429.316.104.645.155.986.155a4.515 4.515 0 0 0 1.337-.238c.221-.076.431-.168.632-.279.199-.108.372-.227.515-.356.147-.124.277-.273.401-.432.05-.064.101-.122.147-.192a5.55 5.55 0 0 0 .412-.724c.115-.241.202-.474.266-.698.03-.109.054-.21.069-.3.016-.09.024-.169.024-.236 0-.348-.057-.601-.17-.761a.551.551 0 0 0-.211-.177.67.67 0 0 0-.292-.059.43.43 0 0 0-.177.037z"/></g><g><path fill="url(#yq5tv)" d="M170.257 79.505a.395.395 0 0 0 0 0 .248.248 0 0 1 0 0z"/></g><g><path fill="url(#yq5tw)" d="M183.621 80.06l-.057.086.057-.086a4.57 4.57 0 0 0 0 0z"/></g><g><path fill="url(#yq5tx)" d="M204.166 79.375a1.639 1.639 0 0 0 0 0 .186.186 0 0 1 0 0z"/></g><g><path fill="url(#yq5ty)" d="M203.663 77.442a.97.97 0 0 0-.242.403c-.097.269-.169.642-.217 1.116-.01.105-.018.223-.026.338.042-.049.083-.1.125-.145.074-.086.156-.161.267-.244a.897.897 0 0 1 .519-.175c.164 0 .292.061.388.115.048.028.1.063.153.101.039.029.062.07.095.103.029-.238.054-.471.054-.682 0-.121-.02-.245-.063-.374a1.248 1.248 0 0 0-.17-.345.975.975 0 0 0-.247-.249.502.502 0 0 0-.636.038z"/></g><g><path fill="url(#yq5tz)" d="M203.761 79.557a2.398 2.398 0 0 1 0 0 1.022 1.022 0 0 0 0 0z"/></g></g></svg>