<svg xmlns="http://www.w3.org/2000/svg" width="9" height="9" viewBox="0 0 9 9"><g><g><path fill="#fff" d="M4.337.295A4.139 4.139 0 0 1 8.47 4.43a4.139 4.139 0 0 1-4.134 4.134A4.14 4.14 0 0 1 .202 4.43 4.14 4.14 0 0 1 4.337.295zm2.668 2.018c-.46.537-1.085.974-1.852 1.302.088.18.175.369.26.568.669-.121 1.443-.131 2.325.042a3.39 3.39 0 0 0-.733-1.912zm-.512-.52a3.394 3.394 0 0 0-2.954-.676c.274.323.663.824 1.065 1.489.07.114.14.235.213.364.643-.266 1.238-.643 1.676-1.177zm-3.686-.408a3.42 3.42 0 0 0-1.772 2.201c.646.01 1.882-.026 3.08-.373a10.901 10.901 0 0 0-1.308-1.828zM.93 4.43c0 .858.319 1.643.845 2.243.246-.38.657-.916 1.262-1.403.42-.337.972-.678 1.662-.905a10.5 10.5 0 0 0-.233-.497 9.087 9.087 0 0 1-1.217.286 12.38 12.38 0 0 1-2.318.158L.93 4.43zm1.388 2.743a3.393 3.393 0 0 0 3.267.428 11.331 11.331 0 0 0-.616-2.565 4.55 4.55 0 0 0-1.476.802 5.257 5.257 0 0 0-1.175 1.335zm3.952.061a3.412 3.412 0 0 0 1.433-2.273c-.717-.154-1.391-.185-2.021-.09.25.7.463 1.492.588 2.363z"/></g></g></svg>