<svg xmlns="http://www.w3.org/2000/svg" width="21" height="20" viewBox="0 0 21 20"><g><g><path fill="#2c6899" d="M20.202 10.034c0 5.448-4.417 9.865-9.866 9.865S.471 15.482.471 10.034A9.864 9.864 0 0 1 10.336.17c5.45 0 9.866 4.416 9.866 9.865z"/></g><g><path fill="#fff" d="M11.65 7.128c.257-.01.515-.002.774-.003h.107V5.782c-.138-.014-.282-.033-.427-.041-.265-.011-.53-.025-.796-.02-.405.01-.787.107-1.122.347-.384.277-.595.665-.675 1.123a3.962 3.962 0 0 0-.047.577c-.007.3 0 .603 0 .904v.112H8.176v1.501h1.28v3.772h1.561v-3.765h1.274c.065-.5.128-.994.196-1.509H11.007s.004-.743.013-1.067c.012-.44.275-.576.63-.589z"/></g></g></svg>