<svg xmlns="http://www.w3.org/2000/svg" width="21" height="21" viewBox="0 0 21 21"><g><g><path fill="#2c6899" d="M20.202 10.639c0 5.448-4.417 9.866-9.866 9.866S.471 16.087.471 10.639A9.864 9.864 0 0 1 10.336.774c5.45 0 9.866 4.416 9.866 9.865z"/></g><g><path fill="#fff" d="M13.946 8.937c.057.57.115 3.262-.051 3.895-.216.823-.752 1.314-1.586 1.448-.63.102-3.437.12-4.01-.027-.824-.212-1.317-.746-1.454-1.58-.1-.609-.135-3.449.038-4.065.224-.801.756-1.274 1.567-1.407.71-.116 2.73-.086 3.582-.04.5.027.955.184 1.328.54.354.338.537.759.586 1.236zm-.667 3.619c.098-.639.079-2.962.014-3.556-.068-.638-.46-1.059-1.091-1.156-.615-.093-2.924-.086-3.565-.014-.633.071-1.053.463-1.148 1.089-.101.666-.081 3.157 0 3.656.087.521.383.878.902 1.023.542.152 3.15.116 3.735.052.636-.07 1.056-.461 1.153-1.094zm-2.895-3.673a1.856 1.856 0 1 1-.005 3.714 1.855 1.855 0 0 1-1.852-1.855 1.855 1.855 0 0 1 1.857-1.859zm-.013 3.058a1.199 1.199 0 0 0 1.213-1.196 1.2 1.2 0 0 0-1.195-1.206 1.2 1.2 0 1 0-.018 2.402zm1.94-2.695a.431.431 0 0 1-.434-.432.432.432 0 0 1 .439-.437.432.432 0 0 1 .43.437.43.43 0 0 1-.434.432z"/></g></g></svg>